<?xml version="1.0" standalone="no"?>
<!DOCTYPE svg PUBLIC "-//W3C//DTD SVG 20010904//EN"
 "http://www.w3.org/TR/2001/REC-SVG-20010904/DTD/svg10.dtd">
<svg version="1.0" xmlns="http://www.w3.org/2000/svg"
 width="70.000000pt" height="30.000000pt" viewBox="0 0 70.000000 30.000000"
 preserveAspectRatio="xMidYMid meet">
<metadata>
Created by potrace 1.11, written by Peter Selinger 2001-2013
</metadata>
<g transform="translate(0.000000,30.000000) scale(0.100000,-0.100000)"
fill="#000000" stroke="none">
<path d="M316 222 c-3 -3 -6 -24 -6 -46 0 -40 -1 -41 -18 -20 -13 16 -27 21
-62 20 -43 -2 -45 -3 -48 -35 -4 -40 -28 -51 -48 -22 -11 15 -26 21 -53 21
-46 0 -56 -11 -66 -67 -8 -53 -8 -58 7 -58 6 0 16 20 22 45 8 34 16 46 33 48
16 2 22 -3 25 -20 3 -20 8 -23 37 -20 18 2 31 0 28 -5 -3 -5 -1 -15 4 -23 8
-13 10 -13 19 0 5 8 12 34 16 58 5 36 10 42 30 42 17 0 24 -6 24 -19 0 -25 17
-36 34 -22 19 16 51 0 51 -24 0 -13 5 -19 15 -16 59 14 90 13 90 -2 0 -21 19
-32 33 -18 8 8 5 19 -11 41 -20 27 -21 30 -5 30 10 0 30 7 46 14 27 15 27 15
27 -19 0 -41 15 -53 30 -25 16 30 36 19 32 -17 -4 -35 -1 -38 51 -47 33 -6 37
-5 37 14 0 15 -6 20 -25 20 -21 0 -25 5 -25 29 0 17 -4 33 -10 36 -13 8 -13
75 0 75 11 0 18 -27 22 -80 2 -23 8 -35 18 -35 12 0 14 12 12 60 -4 67 -14 85
-46 85 -31 0 -46 -19 -46 -59 l0 -36 -19 24 c-18 24 -19 24 -59 8 -53 -21 -70
-14 -74 30 l-3 36 -57 2 c-31 2 -59 0 -62 -3z"/>
</g>
</svg>
