<?xml version="1.0" standalone="no"?>
<!DOCTYPE svg PUBLIC "-//W3C//DTD SVG 20010904//EN"
 "http://www.w3.org/TR/2001/REC-SVG-20010904/DTD/svg10.dtd">
<svg version="1.0" xmlns="http://www.w3.org/2000/svg"
 width="50.000000pt" height="30.000000pt" viewBox="0 0 50.000000 30.000000"
 preserveAspectRatio="xMidYMid meet">
<metadata>
Created by potrace 1.11, written by Peter Selinger 2001-2013
</metadata>
<g transform="translate(0.000000,30.000000) scale(0.100000,-0.100000)"
fill="#000000" stroke="none">
<path d="M261 162 c-34 -3 -97 -38 -137 -74 -12 -10 -43 -27 -70 -37 -62 -24
-73 -47 -18 -37 22 4 46 13 55 19 120 87 139 97 184 97 53 0 117 -28 173 -76
44 -38 52 -41 52 -20 0 30 -113 108 -180 125 -14 3 -40 5 -59 3z"/>
</g>
</svg>
