<?xml version="1.0" standalone="no"?>
<!DOCTYPE svg PUBLIC "-//W3C//DTD SVG 20010904//EN"
 "http://www.w3.org/TR/2001/REC-SVG-20010904/DTD/svg10.dtd">
<svg version="1.0" xmlns="http://www.w3.org/2000/svg"
 width="121.000000pt" height="39.000000pt" viewBox="0 0 121.000000 39.000000"
 preserveAspectRatio="xMidYMid meet">
<metadata>
Created by potrace 1.11, written by Peter Selinger 2001-2013
</metadata>
<g transform="translate(0.000000,39.000000) scale(0.100000,-0.100000)"
fill="#000000" stroke="none">
<path d="M615 382 c-127 -14 -262 -84 -408 -215 -23 -21 -79 -56 -125 -79 -70
-35 -80 -43 -65 -52 48 -27 158 29 268 138 123 121 222 170 360 177 51 3 157
-52 213 -110 9 -10 28 -24 42 -31 29 -15 183 -131 188 -142 6 -14 103 -70 109
-64 4 3 2 10 -3 15 -27 24 -162 130 -201 159 -25 17 -70 55 -101 83 -58 53
-168 114 -219 120 -15 2 -41 3 -58 1z"/>
</g>
</svg>
