<?xml version="1.0" standalone="no"?>
<!DOCTYPE svg PUBLIC "-//W3C//DTD SVG 20010904//EN"
 "http://www.w3.org/TR/2001/REC-SVG-20010904/DTD/svg10.dtd">
<svg version="1.0" xmlns="http://www.w3.org/2000/svg"
 width="154.000000pt" height="47.000000pt" viewBox="0 0 154.000000 47.000000"
 preserveAspectRatio="xMidYMid meet">
<metadata>
Created by potrace 1.11, written by Peter Selinger 2001-2013
</metadata>
<g transform="translate(0.000000,47.000000) scale(0.100000,-0.100000)"
fill="#000000" stroke="none">
<path d="M537 455 c-70 -19 -194 -81 -236 -116 -20 -18 -74 -68 -121 -114 -47
-45 -107 -97 -135 -116 -46 -31 -48 -34 -25 -37 28 -3 133 50 153 77 54 78
214 220 266 236 14 4 44 18 68 31 94 49 188 41 284 -26 31 -22 92 -58 135 -81
44 -23 82 -47 86 -53 8 -12 -50 -75 -69 -76 -6 0 -28 20 -49 45 -24 30 -44 45
-60 45 -13 0 -24 -4 -24 -10 0 -5 6 -10 14 -10 14 0 86 -81 86 -97 0 -5 -13
-22 -29 -37 l-29 -28 -25 29 c-14 15 -35 39 -46 53 l-20 25 -1 -28 c0 -16 10
-43 22 -59 19 -28 20 -33 7 -57 -8 -14 -25 -28 -39 -32 -24 -7 -24 -7 5 -8 26
-1 68 19 85 39 3 3 15 13 28 22 12 8 44 35 70 60 74 70 114 95 157 102 22 3
59 9 82 12 64 10 136 -34 265 -159 35 -35 88 -59 88 -40 0 5 -19 24 -42 41
-24 17 -54 41 -68 54 -126 115 -218 151 -318 125 -16 -4 -36 2 -62 18 -20 13
-67 37 -103 54 -36 16 -91 46 -121 66 -91 60 -182 77 -279 50z"/>
</g>
</svg>
