<?xml version="1.0" standalone="no"?>
<!DOCTYPE svg PUBLIC "-//W3C//DTD SVG 20010904//EN"
 "http://www.w3.org/TR/2001/REC-SVG-20010904/DTD/svg10.dtd">
<svg version="1.0" xmlns="http://www.w3.org/2000/svg"
 width="100.000000pt" height="68.000000pt" viewBox="0 0 100.000000 68.000000"
 preserveAspectRatio="xMidYMid meet">
<metadata>
Created by potrace 1.11, written by Peter Selinger 2001-2013
</metadata>
<g transform="translate(0.000000,68.000000) scale(0.100000,-0.100000)"
fill="#000000" stroke="none">
<path d="M571 623 c-44 -48 -83 -104 -78 -110 3 -2 11 3 18 12 45 55 98 109
103 104 4 -3 13 -28 20 -55 20 -68 40 -122 75 -193 23 -48 32 -85 41 -174 7
-62 20 -131 30 -154 18 -41 20 -42 47 -32 21 8 42 6 90 -7 85 -23 100 -10 51
44 -19 21 -42 62 -52 92 -17 51 -59 116 -110 171 -14 15 -39 53 -57 85 -17 33
-38 67 -46 76 -8 9 -27 52 -41 95 -16 46 -33 79 -42 81 -8 1 -30 -15 -49 -35z"/>
<path d="M328 498 c-34 -29 -72 -64 -83 -78 -10 -14 -45 -51 -76 -82 -43 -43
-61 -70 -73 -110 -18 -60 -34 -84 -72 -109 -15 -10 -22 -19 -15 -23 5 -4 28
10 50 29 28 26 44 51 55 89 9 28 25 61 37 71 12 11 57 55 100 99 72 73 124
116 142 116 4 0 7 -15 7 -32 0 -18 9 -47 19 -65 11 -17 23 -58 27 -90 9 -81
26 -127 47 -131 15 -3 17 0 9 15 -6 10 -11 58 -11 106 -1 70 2 87 14 87 8 0
15 -4 15 -10 0 -13 60 -80 71 -80 18 0 -30 76 -80 127 -49 51 -62 73 -41 73 6
0 10 5 10 11 0 8 -4 8 -15 -1 -12 -10 -17 -7 -26 14 -7 14 -20 26 -30 26 -9 0
-46 -24 -81 -52z"/>
</g>
</svg>
