<?xml version="1.0" standalone="no"?>
<!DOCTYPE svg PUBLIC "-//W3C//DTD SVG 20010904//EN"
 "http://www.w3.org/TR/2001/REC-SVG-20010904/DTD/svg10.dtd">
<svg version="1.0" xmlns="http://www.w3.org/2000/svg"
 width="85.000000pt" height="68.000000pt" viewBox="0 0 85.000000 68.000000"
 preserveAspectRatio="xMidYMid meet">
<metadata>
Created by potrace 1.11, written by Peter Selinger 2001-2013
</metadata>
<g transform="translate(0.000000,68.000000) scale(0.100000,-0.100000)"
fill="#000000" stroke="none">
<path d="M366 603 c-67 -76 -103 -149 -112 -228 -7 -59 -3 -53 -136 -204 -31
-35 -60 -77 -63 -93 -4 -16 -19 -40 -33 -54 l-27 -25 30 7 c35 8 55 29 55 60
0 12 24 48 52 82 29 33 64 75 78 93 14 18 30 37 36 43 20 20 36 57 30 71 -6
16 33 120 63 168 11 18 35 47 55 66 l34 33 31 -65 c17 -37 31 -68 31 -70 0 -3
16 -31 35 -63 31 -52 35 -65 35 -128 0 -39 -4 -87 -10 -106 -7 -24 -7 -54 1
-93 8 -46 7 -62 -3 -74 -12 -15 -8 -15 32 -8 66 11 91 12 125 3 44 -12 135 1
135 19 0 8 -21 40 -46 71 -25 30 -57 77 -70 104 -14 27 -46 72 -72 102 -79 89
-122 148 -122 166 0 6 -11 35 -24 63 -13 29 -31 69 -40 90 -8 20 -21 37 -28
37 -7 -1 -39 -31 -72 -67z"/>
</g>
</svg>
