<?xml version="1.0" standalone="no"?>
<!DOCTYPE svg PUBLIC "-//W3C//DTD SVG 20010904//EN"
 "http://www.w3.org/TR/2001/REC-SVG-20010904/DTD/svg10.dtd">
<svg version="1.0" xmlns="http://www.w3.org/2000/svg"
 width="50.000000pt" height="50.000000pt" viewBox="0 0 50.000000 50.000000"
 preserveAspectRatio="xMidYMid meet">
<metadata>
Created by potrace 1.11, written by Peter Selinger 2001-2013
</metadata>
<g transform="translate(0.000000,50.000000) scale(0.100000,-0.100000)"
fill="#000000" stroke="none">
<path d="M196 443 c-35 -47 -76 -139 -76 -169 0 -17 -35 -88 -84 -170 -33 -54
-47 -104 -28 -104 13 0 141 254 152 303 10 45 48 119 68 131 5 3 26 -36 46
-87 21 -51 43 -104 49 -119 9 -21 8 -31 -1 -40 -9 -9 -17 -7 -36 11 -38 36
-44 5 -6 -34 28 -29 30 -35 19 -53 -13 -20 -13 -20 -42 4 -16 13 -33 24 -38
24 -17 0 -9 -21 17 -43 l26 -22 -21 -19 c-20 -18 -21 -18 -39 4 -21 26 -48 20
-33 -8 27 -50 36 -55 63 -41 34 18 107 107 114 139 8 37 26 81 45 113 l17 29
17 -54 c23 -71 55 -122 67 -110 7 7 2 29 -15 64 -13 29 -28 64 -32 78 -4 14
-14 33 -23 43 -15 16 -16 16 -32 -1 -10 -10 -23 -29 -30 -42 l-13 -24 -15 30
c-8 16 -19 42 -23 59 -12 48 -57 149 -68 153 -5 2 -26 -18 -45 -45z"/>
</g>
</svg>
