<?xml version="1.0" standalone="no"?>
<!DOCTYPE svg PUBLIC "-//W3C//DTD SVG 20010904//EN"
 "http://www.w3.org/TR/2001/REC-SVG-20010904/DTD/svg10.dtd">
<svg version="1.0" xmlns="http://www.w3.org/2000/svg"
 width="93.000000pt" height="77.000000pt" viewBox="0 0 93.000000 77.000000"
 preserveAspectRatio="xMidYMid meet">
<metadata>
Created by potrace 1.11, written by Peter Selinger 2001-2013
</metadata>
<g transform="translate(0.000000,77.000000) scale(0.100000,-0.100000)"
fill="#000000" stroke="none">
<path d="M348 680 c-5 -77 -9 -96 -32 -128 -77 -108 -108 -160 -120 -202 -7
-25 -23 -61 -35 -80 -11 -19 -21 -43 -21 -54 0 -31 -40 -86 -73 -100 -38 -16
-71 -50 -65 -68 3 -8 13 -3 28 15 13 15 42 36 64 47 43 20 82 71 73 94 -3 8 6
35 20 61 13 26 26 57 27 69 4 34 44 112 82 158 39 46 53 70 65 107 7 26 7 26
8 -4 1 -38 30 -122 54 -155 9 -13 17 -38 17 -55 0 -29 12 -85 24 -115 8 -21
-18 -52 -38 -44 -9 3 -16 17 -16 31 0 13 -9 41 -19 61 -11 20 -25 51 -32 67
-20 47 -23 5 -3 -46 9 -24 18 -61 21 -81 4 -32 2 -38 -24 -52 -34 -17 -54 -38
-57 -61 -3 -17 -21 -40 -55 -67 -11 -10 -21 -23 -21 -29 0 -6 14 1 31 15 17
14 34 26 38 26 4 0 16 18 26 41 23 51 49 69 99 69 31 0 45 7 72 35 18 19 37
35 42 35 19 0 72 32 72 44 0 18 24 66 33 66 4 0 7 -17 7 -38 0 -26 10 -53 34
-87 52 -78 85 -146 92 -192 6 -43 7 -43 48 -43 23 0 57 -4 75 -10 46 -13 50
-6 18 28 -15 16 -27 34 -27 41 0 21 -68 135 -96 162 -14 13 -49 59 -76 102
-28 43 -57 77 -66 77 -9 0 -26 -10 -40 -22 -20 -19 -25 -21 -32 -8 -5 8 -31
44 -59 80 -59 76 -69 95 -112 213 -17 48 -35 87 -39 87 -4 0 -10 -41 -12 -90z"/>
</g>
</svg>
