<?xml version="1.0" standalone="no"?>
<!DOCTYPE svg PUBLIC "-//W3C//DTD SVG 20010904//EN"
 "http://www.w3.org/TR/2001/REC-SVG-20010904/DTD/svg10.dtd">
<svg version="1.0" xmlns="http://www.w3.org/2000/svg"
 width="114.000000pt" height="85.000000pt" viewBox="0 0 114.000000 85.000000"
 preserveAspectRatio="xMidYMid meet">
<metadata>
Created by potrace 1.11, written by Peter Selinger 2001-2013
</metadata>
<g transform="translate(0.000000,85.000000) scale(0.100000,-0.100000)"
fill="#000000" stroke="none">
<path d="M370 840 c-8 -5 -36 -7 -62 -5 -46 4 -78 -11 -78 -36 0 -5 -16 -9
-35 -9 -37 0 -42 -9 -24 -41 15 -29 -5 -49 -51 -49 -29 0 -41 -6 -54 -25 -9
-14 -14 -30 -11 -35 3 -6 2 -10 -4 -10 -19 0 -42 -60 -42 -108 0 -26 -1 -67
-2 -92 -2 -40 1 -46 33 -68 19 -13 43 -40 53 -60 10 -23 33 -46 58 -60 49 -28
60 -55 62 -149 1 -40 3 -73 4 -73 1 0 12 21 24 46 18 41 19 52 9 88 -6 22 -12
50 -13 61 -1 10 -20 32 -43 47 -24 16 -48 43 -59 68 -13 28 -31 48 -56 61 -21
10 -40 23 -44 28 -8 15 5 61 18 61 7 0 40 14 75 32 55 27 67 30 84 19 17 -10
23 -9 40 5 29 27 52 7 56 -47 2 -24 10 -51 18 -60 8 -8 12 -18 9 -21 -3 -3 1
-11 10 -18 20 -16 19 -30 -2 -45 -15 -11 -15 -15 -3 -30 13 -15 11 -20 -12
-39 -38 -30 -40 -94 -7 -218 6 -22 16 -38 24 -38 19 0 19 4 -1 42 -23 45 -24
81 -3 96 15 10 17 21 13 56 -4 29 -2 46 6 51 21 13 31 -10 35 -81 2 -38 4 -73
4 -77 1 -13 26 -2 27 11 5 42 7 44 15 15 9 -30 31 -44 42 -25 3 4 0 33 -5 65
-6 32 -7 61 -4 64 7 7 50 -38 54 -56 4 -18 3 -84 0 -101 -2 -8 -10 -26 -17
-39 -11 -19 -11 -23 1 -19 22 7 48 70 48 118 0 25 -8 61 -19 80 -18 35 -31 44
-109 76 -35 14 -42 22 -38 37 5 19 -13 65 -44 113 -8 13 -10 32 -6 48 6 24 10
26 41 20 26 -4 36 -2 40 8 4 11 19 13 60 10 42 -3 55 -1 56 9 0 8 4 4 9 -8 11
-28 31 -29 55 -3 23 25 32 25 40 1 4 -13 12 -17 25 -14 30 8 37 -24 11 -51
-26 -28 -26 -38 -1 -61 11 -10 20 -23 20 -29 0 -13 -47 -66 -59 -66 -4 0 -17
-18 -30 -40 -18 -33 -22 -53 -20 -122 2 -105 7 -135 27 -143 27 -10 32 8 15
57 -18 55 -11 150 10 129 27 -27 39 -12 35 44 -2 40 1 56 11 60 21 8 23 2 25
-84 1 -67 -1 -81 -14 -81 -13 0 -13 -1 0 -10 20 -13 40 14 41 54 1 24 3 20 13
-22 15 -61 22 -70 38 -54 8 8 9 25 0 64 -18 86 -8 127 16 73 14 -30 16 -165 4
-165 -5 0 -9 -7 -9 -15 0 -13 2 -13 17 0 13 12 18 34 19 91 1 74 -13 123 -41
141 -7 4 -24 21 -38 37 -19 22 -21 28 -7 23 27 -10 20 16 -13 48 -16 16 -30
34 -30 41 0 21 45 81 57 77 7 -3 18 5 25 16 7 12 19 21 26 21 7 0 21 5 32 10
11 5 29 14 39 20 14 6 23 5 30 -4 6 -7 23 -11 39 -8 23 3 34 -2 51 -23 25 -32
27 -51 6 -59 -8 -3 -15 -12 -15 -21 0 -8 -4 -15 -10 -15 -5 0 -10 -5 -10 -12
0 -20 -49 -56 -68 -51 -14 3 -21 -4 -29 -31 -12 -38 -2 -56 30 -56 18 0 17 -3
-7 -26 -21 -22 -26 -35 -25 -78 0 -62 21 -175 32 -177 4 -1 17 1 28 4 l21 6
-20 33 c-30 49 -40 157 -17 191 9 14 27 29 38 33 32 10 57 34 73 74 8 19 30
47 49 63 28 23 35 36 35 65 1 20 2 53 3 72 2 27 -3 37 -19 44 -11 5 -28 22
-37 38 -9 16 -25 32 -36 36 -11 4 -33 26 -48 50 -16 23 -51 61 -78 83 -43 35
-50 38 -64 25 -11 -10 -21 -12 -31 -6 -21 13 -54 12 -68 -2 -13 -13 -110 -19
-118 -6 -7 11 -68 10 -118 -2 -32 -7 -47 -5 -77 11 -44 22 -40 21 -59 9z m439
-27 c22 -15 25 -15 36 0 20 28 42 19 36 -15 0 -5 4 -8 11 -8 16 0 88 -80 88
-98 0 -10 -5 -12 -17 -6 -10 5 -47 8 -82 7 -68 -2 -91 9 -91 46 0 11 -11 28
-25 37 -20 13 -22 19 -12 35 15 23 26 24 56 2z m-383 -12 c15 -12 20 -22 14
-26 -6 -3 -8 -11 -5 -16 4 -5 -5 -9 -18 -9 -14 0 -50 -11 -81 -25 -55 -24 -57
-24 -93 -7 -59 27 -74 58 -23 47 25 -6 31 -3 41 19 10 20 15 23 26 15 9 -8 17
-8 26 -2 6 6 22 9 35 8 13 -1 25 2 28 7 8 13 24 9 50 -11z m150 -12 c15 6 25
7 29 1 4 -6 23 -7 43 -4 25 4 43 1 57 -10 18 -14 18 -15 2 -16 -9 0 -25 -9
-34 -20 -10 -11 -22 -20 -28 -20 -6 0 -18 -9 -28 -21 -19 -22 -42 -20 -85 7
-12 8 -26 12 -31 10 -5 -3 -11 4 -15 17 -8 31 -8 34 10 51 12 13 20 14 36 5
15 -8 27 -8 44 0z m162 -73 c15 -8 36 -23 46 -35 11 -12 31 -21 45 -21 27 -1
61 -21 61 -36 0 -6 -13 -18 -30 -27 -17 -11 -30 -14 -30 -7 0 6 -12 16 -26 22
-22 10 -28 10 -38 -4 -10 -14 -26 -16 -77 -14 -42 2 -71 -1 -85 -11 -12 -7
-29 -11 -38 -7 -9 3 -24 0 -33 -7 -17 -13 -17 -12 -1 12 9 14 18 36 20 49 2
17 10 24 30 24 15 1 35 9 46 19 10 9 23 17 29 17 5 0 18 9 28 20 22 24 19 24
53 6z m-495 -24 c20 -22 11 -37 -27 -46 -15 -4 -30 -15 -33 -26 -3 -11 -14
-22 -24 -25 -10 -4 -19 -11 -19 -16 0 -5 -6 -9 -14 -9 -8 0 -28 -17 -44 -37
l-30 -38 -12 30 c-15 38 -6 69 25 89 14 9 23 21 19 27 -10 16 17 39 46 39 15
0 41 7 56 15 36 19 38 19 57 -3z m250 3 c30 -8 30 -8 21 -54 -5 -24 -10 -29
-19 -21 -23 19 -169 -7 -190 -34 -18 -23 -61 -25 -74 -3 -7 10 -11 20 -9 21 2
1 15 7 31 14 15 6 32 23 39 37 7 16 19 25 34 25 13 0 29 7 36 15 13 15 74 15
131 0z m502 -38 c34 -2 41 -6 43 -25 3 -16 15 -28 38 -38 27 -11 34 -19 29
-33 -3 -10 -7 -37 -10 -60 -2 -28 -11 -48 -27 -61 -21 -17 -24 -17 -29 -2 -4
9 0 24 7 33 8 8 14 29 14 46 0 25 -7 36 -34 52 -18 12 -42 21 -53 21 -20 0
-38 17 -61 59 -13 23 -13 23 15 16 15 -4 46 -7 68 -8z"/>
</g>
</svg>
