<?xml version="1.0" standalone="no"?>
<!DOCTYPE svg PUBLIC "-//W3C//DTD SVG 20010904//EN"
 "http://www.w3.org/TR/2001/REC-SVG-20010904/DTD/svg10.dtd">
<svg version="1.0" xmlns="http://www.w3.org/2000/svg"
 width="96.000000pt" height="86.000000pt" viewBox="0 0 96.000000 86.000000"
 preserveAspectRatio="xMidYMid meet">
<metadata>
Created by potrace 1.11, written by Peter Selinger 2001-2013
</metadata>
<g transform="translate(0.000000,86.000000) scale(0.100000,-0.100000)"
fill="#000000" stroke="none">
<path d="M225 778 c-26 -120 -68 -200 -120 -228 -15 -8 -43 -39 -63 -70 -44
-68 -54 -153 -25 -210 20 -39 75 -80 108 -80 21 0 22 -4 21 -92 l-1 -93 40 3
c56 5 75 25 76 81 0 39 2 43 11 24 6 -12 19 -24 29 -26 31 -8 49 19 49 74 0
27 5 49 10 49 10 0 15 -43 10 -84 -1 -11 1 -44 5 -73 6 -52 7 -53 41 -53 55 0
74 27 74 106 0 41 4 63 10 59 6 -3 10 -24 10 -45 0 -42 6 -46 70 -53 23 -2 25
2 28 41 5 72 26 52 38 -38 8 -59 23 -75 66 -66 44 9 58 24 58 62 l0 34 51 0
52 0 -6 64 -6 65 44 21 c53 26 57 46 22 118 -13 26 -41 90 -62 142 -21 52 -42
99 -46 105 -5 5 -9 18 -9 28 0 11 -8 36 -19 56 -10 20 -22 49 -27 65 -5 16
-14 31 -19 33 -6 2 -32 -17 -59 -42 -39 -35 -52 -42 -67 -35 -26 14 -80 12
-109 -5 -36 -21 -39 -19 -46 25 -10 60 -33 48 -57 -28 l-19 -64 -42 79 c-44
85 -78 133 -93 133 -6 0 -18 -37 -28 -82z m125 -167 c6 -23 9 -50 5 -58 -5
-14 -7 -14 -23 1 -10 9 -44 21 -75 27 -31 7 -57 16 -57 20 0 5 4 9 9 9 10 0
24 33 46 114 l16 59 34 -64 c18 -35 38 -84 45 -108z m427 4 c20 -49 42 -102
49 -117 8 -15 14 -30 14 -33 0 -3 18 -40 39 -82 l39 -78 -29 -17 c-16 -10 -30
-18 -32 -18 -1 0 -3 33 -3 73 -1 46 -8 85 -18 105 -18 35 -62 82 -76 82 -6 0
-10 18 -10 39 0 30 -8 49 -36 82 l-36 43 28 23 c26 21 29 21 32 5 2 -9 20 -57
39 -107z m-118 27 c60 -56 69 -91 21 -84 -21 3 -35 13 -46 34 -9 16 -18 28
-21 25 -2 -3 1 -15 7 -27 6 -12 9 -24 6 -27 -11 -11 -37 7 -46 32 -14 37 -22
31 -19 -15 5 -62 -14 -68 -39 -13 -34 78 -35 89 -10 107 12 9 39 16 59 16 30
0 46 -9 88 -48z m-195 -41 c7 -26 25 -70 39 -97 13 -27 28 -65 32 -84 4 -19
16 -54 26 -76 22 -47 32 -101 19 -109 -5 -3 -12 5 -16 17 -5 18 -36 71 -61
107 -2 2 -5 2 -8 -1 -3 -3 4 -25 15 -49 23 -51 25 -69 7 -69 -7 0 -18 15 -26
33 -7 17 -15 27 -18 20 -2 -7 0 -20 5 -30 8 -13 5 -19 -11 -28 -20 -10 -22
-19 -22 -100 0 -78 -2 -90 -18 -93 -16 -3 -17 4 -12 97 5 95 4 101 -16 112
-13 7 -40 9 -65 5 -26 -3 -44 -2 -44 4 0 6 4 10 9 10 5 0 11 14 15 30 3 17 18
56 32 88 15 31 30 75 34 97 9 48 38 154 46 166 10 17 23 -1 38 -50z m-206 -60
c17 -5 43 -18 55 -28 23 -18 23 -19 7 -58 l-17 -40 -17 33 c-9 17 -23 32 -31
32 -16 0 -16 -1 19 -67 9 -17 16 -38 16 -47 0 -29 -19 -17 -40 25 -29 55 -36
44 -10 -17 12 -26 20 -62 18 -78 l-3 -31 -25 48 c-14 26 -28 47 -32 47 -10 0
-4 -39 11 -75 24 -58 14 -228 -14 -233 -14 -3 -15 5 -9 81 l7 84 -39 6 c-48 8
-79 29 -99 68 -13 24 -14 40 -5 86 11 65 36 106 88 146 37 29 66 33 120 18z
m471 -41 c24 -12 45 -33 56 -56 19 -40 33 -154 19 -154 -5 0 -22 28 -38 61
-15 33 -30 58 -33 55 -3 -3 3 -22 14 -43 35 -67 46 -112 33 -128 -18 -22 -29
-18 -36 10 -3 14 -10 25 -14 25 -5 0 -3 -15 2 -34 6 -19 7 -43 3 -53 -4 -10
-8 -45 -9 -78 -1 -48 -4 -60 -18 -63 -14 -3 -18 3 -18 27 0 34 -71 260 -99
311 -10 19 -21 52 -25 72 -6 31 -3 39 16 52 31 22 101 20 147 -4z"/>
</g>
</svg>
