<?xml version="1.0" standalone="no"?>
<!DOCTYPE svg PUBLIC "-//W3C//DTD SVG 20010904//EN"
 "http://www.w3.org/TR/2001/REC-SVG-20010904/DTD/svg10.dtd">
<svg version="1.0" xmlns="http://www.w3.org/2000/svg"
 width="111.000000pt" height="95.000000pt" viewBox="0 0 111.000000 95.000000"
 preserveAspectRatio="xMidYMid meet">
<metadata>
Created by potrace 1.11, written by Peter Selinger 2001-2013
</metadata>
<g transform="translate(0.000000,95.000000) scale(0.100000,-0.100000)"
fill="#000000" stroke="none">
<path d="M464 937 c-11 -7 -37 -25 -57 -40 -20 -16 -41 -26 -47 -22 -17 11
-71 -16 -79 -39 -6 -15 -18 -21 -45 -22 -44 -1 -96 -45 -96 -81 0 -14 -6 -23
-15 -23 -9 0 -18 -7 -21 -15 -4 -8 -13 -15 -21 -15 -8 0 -28 -7 -45 -16 -26
-13 -29 -20 -25 -47 2 -18 0 -39 -6 -48 -8 -12 -5 -27 10 -55 16 -30 19 -52
15 -96 -5 -67 0 -77 74 -124 28 -18 59 -48 68 -66 12 -22 16 -25 13 -10 -6 27
-3 28 24 1 18 -18 19 -28 13 -92 -4 -40 -11 -80 -16 -89 -6 -13 -5 -18 6 -18
25 0 36 35 40 116 l3 77 -40 44 c-22 23 -45 43 -52 43 -6 0 -22 9 -34 19 -12
11 -30 25 -40 33 -12 8 -21 31 -24 65 -5 44 -3 55 19 80 13 15 24 38 24 49 0
24 38 54 69 54 13 0 26 -15 40 -45 12 -25 21 -49 21 -55 0 -5 9 -15 20 -22 11
-7 20 -22 20 -33 0 -26 27 -65 45 -65 8 0 19 -9 25 -20 9 -17 5 -26 -23 -57
-37 -39 -37 -33 -22 -168 7 -63 26 -125 37 -125 12 0 10 41 -7 96 -19 63 -19
96 0 142 21 48 32 31 41 -61 8 -77 28 -87 31 -16 3 75 5 80 20 67 8 -6 13 -21
12 -32 -3 -39 1 -66 9 -66 4 0 5 26 1 58 -11 89 -11 102 5 96 22 -9 38 -82 37
-178 0 -69 2 -87 10 -73 13 22 17 178 7 222 -9 35 -51 73 -91 82 -16 3 -38 19
-50 34 -11 16 -26 29 -33 29 -7 0 -16 16 -20 35 -3 19 -15 44 -25 56 -28 32
-24 50 25 103 l44 49 61 -6 c54 -4 63 -3 72 14 17 33 109 19 109 -17 0 -7 -10
-16 -21 -19 -19 -6 -21 -13 -17 -55 4 -41 12 -55 56 -101 46 -48 50 -55 37
-69 -8 -9 -15 -20 -15 -25 0 -4 -17 -22 -37 -40 -37 -32 -38 -34 -38 -101 0
-65 30 -194 45 -194 17 0 16 16 -2 83 -23 85 -18 163 13 196 31 33 46 26 61
-26 10 -36 19 -48 33 -48 15 0 22 -10 30 -47 5 -25 13 -50 18 -54 9 -10 8 69
-2 123 -11 58 1 72 29 33 26 -37 45 -175 29 -217 -12 -31 -12 -33 4 -33 24 0
37 49 37 136 0 80 -2 89 -30 127 -17 23 -49 53 -70 67 -22 13 -39 29 -36 35 5
15 -13 47 -24 40 -5 -3 -19 13 -32 35 -13 22 -28 40 -34 40 -26 0 -33 70 -9
90 8 7 34 14 57 16 22 2 49 11 58 19 10 9 40 18 66 20 27 3 56 6 64 6 8 1 20
6 27 11 7 6 20 5 33 -2 12 -6 29 -9 37 -6 9 4 33 -2 54 -11 46 -21 63 -71 35
-102 -9 -10 -16 -25 -16 -34 0 -9 -13 -30 -30 -47 -16 -17 -30 -40 -30 -51 0
-11 -10 -24 -22 -29 -55 -23 -63 -36 -62 -113 0 -40 3 -97 6 -127 3 -30 7 -65
7 -76 1 -23 22 -37 44 -28 15 6 6 61 -19 121 -19 44 -18 139 1 147 8 3 15 13
15 23 0 10 10 23 22 28 12 6 26 19 32 29 12 22 11 21 60 86 43 58 55 139 25
166 -10 9 -19 25 -19 35 0 10 -4 21 -10 24 -5 3 -10 19 -10 34 0 36 -17 51
-56 51 -24 0 -33 5 -37 21 -5 18 -11 21 -36 16 -26 -6 -34 -2 -53 23 -27 38
-55 38 -94 1 -27 -26 -67 -38 -99 -31 -5 1 -14 3 -20 4 -25 4 -83 48 -93 71
-12 26 -27 32 -37 14 -5 -7 -12 -5 -23 5 -14 11 -21 12 -38 3z m11 -34 c11
-15 17 -15 39 -5 25 11 27 10 33 -19 4 -22 10 -29 23 -26 21 5 54 -18 45 -32
-3 -6 -15 -11 -26 -11 -11 0 -30 -5 -42 -12 -33 -18 -65 -18 -71 -1 -5 12 -17
14 -59 9 -42 -6 -56 -4 -67 8 -7 9 -21 16 -32 16 -17 0 -18 2 -8 15 9 11 22
14 41 10 23 -5 35 0 64 29 41 41 43 42 60 19z m369 -64 c15 -25 22 -29 46 -24
22 5 28 2 33 -15 4 -17 12 -20 49 -18 37 3 43 0 43 -17 0 -11 3 -24 6 -30 21
-36 18 -42 -17 -30 -19 6 -40 17 -46 23 -7 7 -18 12 -24 12 -7 0 -29 9 -48 21
-20 12 -51 21 -70 22 -44 1 -55 31 -24 64 28 29 30 29 52 -8z m-118 -65 c-7
-25 -4 -27 49 -25 37 2 52 -8 57 -34 2 -13 -2 -19 -11 -17 -8 2 -49 5 -90 7
-42 3 -80 5 -86 6 -5 0 -29 -2 -52 -5 -50 -5 -59 4 -41 41 9 18 22 27 43 29
49 4 95 16 100 25 3 4 13 5 21 2 11 -4 14 -13 10 -29z m-383 11 c9 -4 37 -4
61 -1 38 6 44 4 49 -14 4 -17 9 -19 31 -10 23 8 26 7 26 -10 0 -11 -9 -29 -20
-40 -18 -18 -32 -20 -114 -18 -82 1 -96 -1 -121 -20 -15 -12 -34 -22 -41 -22
-8 0 -14 -7 -14 -15 0 -26 -45 -18 -60 10 -12 23 -12 27 8 41 14 10 22 26 22
44 0 43 35 65 101 64 30 -1 62 -5 72 -9z"/>
</g>
</svg>
